<mxfile host="app.diagrams.net" modified="2023-11-11T22:48:52.494Z" agent="Mozilla/5.0 (Windows NT 10.0; Win64; x64) AppleWebKit/537.36 (KHTML, like Gecko) Chrome/119.0.0.0 Safari/537.36 Edg/119.0.0.0" etag="EsHR4KxbW_Z2Zs8kbrQy" version="22.1.0" type="device">
  <diagram name="Page-1" id="rrJAhbEutDOHijjqDd0q">
    <mxGraphModel dx="1386" dy="785" grid="1" gridSize="10" guides="1" tooltips="1" connect="1" arrows="1" fold="1" page="1" pageScale="1" pageWidth="850" pageHeight="1100" math="0" shadow="0">
      <root>
        <mxCell id="0" />
        <mxCell id="1" parent="0" />
        <mxCell id="w66H_knbpRczrMBNbwaX-2" value="" style="shape=image;html=1;verticalAlign=top;verticalLabelPosition=bottom;labelBackgroundColor=#ffffff;imageAspect=0;aspect=fixed;image=https://cdn2.iconfinder.com/data/icons/social-media-2285/512/1_Youtube_colored_svg-128.png" vertex="1" parent="1">
          <mxGeometry x="120" y="146" width="80" height="80" as="geometry" />
        </mxCell>
        <mxCell id="w66H_knbpRczrMBNbwaX-3" value="Youtube Data" style="text;html=1;strokeColor=none;fillColor=none;align=center;verticalAlign=middle;whiteSpace=wrap;rounded=0;fontSize=11;" vertex="1" parent="1">
          <mxGeometry x="119" y="216" width="80" height="30" as="geometry" />
        </mxCell>
        <mxCell id="w66H_knbpRczrMBNbwaX-5" value="" style="dashed=0;outlineConnect=0;html=1;align=center;labelPosition=center;verticalLabelPosition=bottom;verticalAlign=top;shape=mxgraph.weblogos.mongodb" vertex="1" parent="1">
          <mxGeometry x="428" y="125" width="20" height="40" as="geometry" />
        </mxCell>
        <mxCell id="w66H_knbpRczrMBNbwaX-7" value="" style="shape=cylinder3;whiteSpace=wrap;html=1;boundedLbl=1;backgroundOutline=1;size=15;fillColor=#d5e8d4;strokeColor=#82b366;" vertex="1" parent="1">
          <mxGeometry x="370" y="146" width="60" height="80" as="geometry" />
        </mxCell>
        <mxCell id="w66H_knbpRczrMBNbwaX-8" value="Mongo DB" style="text;html=1;strokeColor=none;fillColor=none;align=center;verticalAlign=middle;whiteSpace=wrap;rounded=0;fontSize=11;" vertex="1" parent="1">
          <mxGeometry x="360" y="226" width="80" height="30" as="geometry" />
        </mxCell>
        <mxCell id="w66H_knbpRczrMBNbwaX-9" value="" style="shape=cylinder3;whiteSpace=wrap;html=1;boundedLbl=1;backgroundOutline=1;size=15;fillColor=#1ba1e2;fontColor=#ffffff;strokeColor=#006EAF;" vertex="1" parent="1">
          <mxGeometry x="605" y="146" width="60" height="80" as="geometry" />
        </mxCell>
        <mxCell id="w66H_knbpRczrMBNbwaX-10" value="&lt;font style=&quot;font-size: 11px;&quot;&gt;SQL Data Warehouse&lt;/font&gt;" style="text;html=1;strokeColor=none;fillColor=none;align=center;verticalAlign=middle;whiteSpace=wrap;rounded=0;fontSize=11;" vertex="1" parent="1">
          <mxGeometry x="596" y="230" width="80" height="30" as="geometry" />
        </mxCell>
        <mxCell id="w66H_knbpRczrMBNbwaX-11" value="" style="endArrow=classic;html=1;rounded=0;exitX=1;exitY=0.5;exitDx=0;exitDy=0;entryX=0;entryY=0.5;entryDx=0;entryDy=0;entryPerimeter=0;" edge="1" parent="1" source="w66H_knbpRczrMBNbwaX-2" target="w66H_knbpRczrMBNbwaX-7">
          <mxGeometry width="50" height="50" relative="1" as="geometry">
            <mxPoint x="400" y="430" as="sourcePoint" />
            <mxPoint x="450" y="380" as="targetPoint" />
          </mxGeometry>
        </mxCell>
        <mxCell id="w66H_knbpRczrMBNbwaX-12" value="" style="endArrow=classic;html=1;rounded=0;exitX=1;exitY=0.5;exitDx=0;exitDy=0;exitPerimeter=0;entryX=0;entryY=0.5;entryDx=0;entryDy=0;entryPerimeter=0;" edge="1" parent="1" source="w66H_knbpRczrMBNbwaX-7" target="w66H_knbpRczrMBNbwaX-9">
          <mxGeometry width="50" height="50" relative="1" as="geometry">
            <mxPoint x="540" y="220" as="sourcePoint" />
            <mxPoint x="450" y="380" as="targetPoint" />
          </mxGeometry>
        </mxCell>
        <mxCell id="w66H_knbpRczrMBNbwaX-13" value="" style="sketch=0;outlineConnect=0;fontColor=#232F3E;gradientColor=none;fillColor=#232F3D;strokeColor=none;dashed=0;verticalLabelPosition=bottom;verticalAlign=top;align=center;html=1;fontSize=12;fontStyle=0;aspect=fixed;pointerEvents=1;shape=mxgraph.aws4.gear;" vertex="1" parent="1">
          <mxGeometry x="270" y="154" width="25" height="25" as="geometry" />
        </mxCell>
        <mxCell id="w66H_knbpRczrMBNbwaX-14" value="" style="sketch=0;outlineConnect=0;fontColor=#232F3E;gradientColor=none;fillColor=#232F3D;strokeColor=none;dashed=0;verticalLabelPosition=bottom;verticalAlign=top;align=center;html=1;fontSize=12;fontStyle=0;aspect=fixed;pointerEvents=1;shape=mxgraph.aws4.gear;" vertex="1" parent="1">
          <mxGeometry x="511" y="155" width="25" height="25" as="geometry" />
        </mxCell>
        <mxCell id="w66H_knbpRczrMBNbwaX-15" value="&lt;font style=&quot;font-size: 11px;&quot;&gt;Python&amp;nbsp;&lt;br style=&quot;font-size: 11px;&quot;&gt;Google Data API&lt;/font&gt;" style="text;html=1;strokeColor=none;fillColor=none;align=center;verticalAlign=middle;whiteSpace=wrap;rounded=0;fontSize=11;" vertex="1" parent="1">
          <mxGeometry x="236" y="186" width="92.5" height="30" as="geometry" />
        </mxCell>
        <mxCell id="w66H_knbpRczrMBNbwaX-16" value="&lt;font style=&quot;font-size: 11px;&quot;&gt;Python&amp;nbsp;&lt;br style=&quot;font-size: 11px;&quot;&gt;Data frameworks&lt;/font&gt;" style="text;html=1;strokeColor=none;fillColor=none;align=center;verticalAlign=middle;whiteSpace=wrap;rounded=0;fontSize=11;" vertex="1" parent="1">
          <mxGeometry x="480" y="188" width="92.5" height="30" as="geometry" />
        </mxCell>
      </root>
    </mxGraphModel>
  </diagram>
</mxfile>
